<svg xmlns="http://www.w3.org/2000/svg" xmlns:xlink="http://www.w3.org/1999/xlink" viewBox="0 0 318 318"><defs><linearGradient id="a" x1="151.6" x2="184.6" y1="112.2" y2="154.6" gradientUnits="userSpaceOnUse"><stop offset="0" stop-color="#03a9f4"/><stop offset="1" stop-color="#037ef4"/></linearGradient><linearGradient id="b" x1="160.4" x2="160.4" y1="33.6" y2="153.6" xlink:href="#a"/></defs><path fill="url(#a)" d="M221.6 34H99.3a23 23 0 0 0-23 22.8v138.6c0 4.9 4 8.1 7.5 5.9l60.7-39h77a23 23 0 0 0 23-22.8V56.8a22.9 22.9 0 0 0-23-22.9z"/><path fill="url(#b)" d="M99.3 34h122.3a23 23 0 0 1 22.9 22.8v82.7a23 23 0 0 1-23 22.9H76.4V56.8a23 23 0 0 1 23-22.9z"/><path fill="#fff" d="M192.2 81.2a3.5 3.5 0 0 0-5 0l-7.5 7.5-10-10 7.5-7.4a3.6 3.6 0 0 0 .5-4.6 3.5 3.5 0 0 0-5.5-.5l-7.5 7.5a7.6 7.6 0 0 0-10 0L141 87.5V105l-7.5 7.5 4.7 4.7-10.6 10.5 3.3 3.3 10.6-10.5 4.5 4.5 7.5-7.6h17.7l13.6-13.6c2.5-2.5 2.5-7.6 0-10l7.6-7.6a3.5 3.5 0 0 0 0-5z"/><path d="M14 255.2a28.3 28.3 0 0 1 0-27.4 25.5 25.5 0 0 1 9.7-9.7 27.2 27.2 0 0 1 13.7-3.6 25.5 25.5 0 0 1 10.6 2.2 25 25 0 0 1 8.5 6.3l-5.8 5.5a17.8 17.8 0 0 0-5.9-4.7 17 17 0 0 0-7.4-1.5 19.3 19.3 0 0 0-9.5 2.3 17.7 17.7 0 0 0-6.8 6.8 21.6 21.6 0 0 0 0 20.2 17.6 17.6 0 0 0 6.8 6.8 19.2 19.2 0 0 0 9.5 2.3q8.6 0 14.7-7.2l5.8 5.6a26 26 0 0 1-9 6.9 26.8 26.8 0 0 1-11.5 2.4 27 27 0 0 1-13.7-3.5 25.5 25.5 0 0 1-9.7-9.7zm58.8-39.5v14l-.3 5.6h.3a12 12 0 0 1 4.7-4.3 14 14 0 0 1 6.8-1.7q6.7 0 10.2 4T98 244v23.3h-7.9V245c0-2.8-.7-4.9-2.2-6.3a8.6 8.6 0 0 0-10.5-.6 10.4 10.4 0 0 0-3.4 4 11.8 11.8 0 0 0-1.2 5.3v19.7h-8v-51.5zm33.5 46.8a12.2 12.2 0 0 1-1.7-6.5 10.7 10.7 0 0 1 4.3-9 17.2 17.2 0 0 1 10.8-3.3 25.3 25.3 0 0 1 5.8.6 20.3 20.3 0 0 1 4.1 1.3v-1.8a6.9 6.9 0 0 0-2.5-5.5 9.7 9.7 0 0 0-6.5-2.2 11.8 11.8 0 0 0-5.3 1.3 10.3 10.3 0 0 0-4 3.3l-5.5-4.2a16.4 16.4 0 0 1 6.3-5.3 19.6 19.6 0 0 1 8.7-1.8q8 0 12.3 3.9t4.3 11v22.9h-7.8v-4.4h-.3a12.4 12.4 0 0 1-4.5 4 13.6 13.6 0 0 1-6.6 1.6 15.4 15.4 0 0 1-7-1.6 11.5 11.5 0 0 1-5-4.3zm22-5.7a10 10 0 0 0 1.3-5 16 16 0 0 0-3.9-1.5 17.7 17.7 0 0 0-4.5-.6q-4.5 0-6.6 1.8a5.7 5.7 0 0 0-2 4.6 5.2 5.2 0 0 0 1.9 4.1 7.6 7.6 0 0 0 5 1.6 10 10 0 0 0 5.2-1.4 9.8 9.8 0 0 0 3.6-3.6zm23.9 8.2a11.4 11.4 0 0 1-3-8.4v-19h-6.5v-7h6.4v-10.4h8v10.3h8.9v7h-9v17.3c0 2 .5 3.4 1.2 4.2a4.4 4.4 0 0 0 3.8 1.4 11.9 11.9 0 0 0 2.1-.3l2-.4v7a13.9 13.9 0 0 1-5.7 1.2 13.3 13.3 0 0 1-4.6-.8 10 10 0 0 1-3.6-2.1zm40.5-49.3a17.8 17.8 0 0 1 8.4 2 15.7 15.7 0 0 1 6.1 5.6 15.7 15.7 0 0 1 0 16.3 15.7 15.7 0 0 1-6.1 5.6 17.8 17.8 0 0 1-8.4 2h-9.8v20h-8v-51.5zm4.8 22.7a8 8 0 0 0 3-3 8 8 0 0 0 0-7.8 7.8 7.8 0 0 0-3-3 8.9 8.9 0 0 0-4.7-1.2H183v16.2h10a8.7 8.7 0 0 0 4.5-1.2zm27.2-22.7v51.6h-8v-51.6zm9 37.6v-22.8h7.9v21.7q0 4.5 2.1 6.7a7.3 7.3 0 0 0 5.6 2.2 8.5 8.5 0 0 0 5-1.5 9.6 9.6 0 0 0 3.3-3.9 12.3 12.3 0 0 0 1.2-5.2v-20h7.9v36.8h-7.5v-4.8h-.4a11.3 11.3 0 0 1-4.7 4.3 14.3 14.3 0 0 1-6.7 1.6q-6.7 0-10.2-4t-3.5-11.1zm41.3 20.2l7.3-3a10 10 0 0 0 3.7 4.6 11.6 11.6 0 0 0 14-1.3q2.8-3 2.8-8.4v-3.3h-.5a12.4 12.4 0 0 1-4.7 4 15.2 15.2 0 0 1-7 1.5 16.3 16.3 0 0 1-8.5-2.4 17 17 0 0 1-6.3-6.7 22.4 22.4 0 0 1 0-20 17.3 17.3 0 0 1 6.3-6.7 16.1 16.1 0 0 1 8.6-2.4 15 15 0 0 1 6.8 1.5 12.6 12.6 0 0 1 4.8 4h.5v-3.4h7.5v33.7a21 21 0 0 1-2.3 10.2 15.3 15.3 0 0 1-6.4 6.4 20.2 20.2 0 0 1-9.6 2.2 19.1 19.1 0 0 1-11.1-3.1 15.2 15.2 0 0 1-6-7.4zm26.3-18.6a13.3 13.3 0 0 0 1.5-6.4c0-3.7-1-6.6-3-8.7a10.2 10.2 0 0 0-7.7-3.2 10.7 10.7 0 0 0-5.4 1.4 10 10 0 0 0-3.9 4.1 15 15 0 0 0 0 12.8 10 10 0 0 0 4 4.1 10.6 10.6 0 0 0 5.3 1.4 10.5 10.5 0 0 0 5.4-1.4 10 10 0 0 0 3.8-4.1z"/></svg>
