<svg xmlns="http://www.w3.org/2000/svg" xmlns:xlink="http://www.w3.org/1999/xlink" viewBox="0 0 168.1 168.1"><defs><linearGradient id="a" x1="75.3" x2="108.3" y1="78.3" y2="120.7" gradientUnits="userSpaceOnUse"><stop offset="0" stop-color="#03a9f4"/><stop offset="1" stop-color="#037ef4"/></linearGradient><linearGradient id="b" x1="84" x2="84" y1="-.3" y2="119.7" xlink:href="#a"/></defs><path fill="url(#a)" d="M145.2 0H22.9A23 23 0 0 0 0 23v138.5c0 4.9 4 8.1 7.5 5.9l60.6-39h77a23 23 0 0 0 23-22.9V23a23 23 0 0 0-23-22.9z"/><path fill="url(#b)" d="M23 0h122.2A23 23 0 0 1 168 23v82.5a23 23 0 0 1-23 23H0V22.9A23 23 0 0 1 23 0z"/><path fill="#fff" d="M115.9 47.3a3.5 3.5 0 0 0-5 0l-7.5 7.5-10-10 7.4-7.4a3.6 3.6 0 0 0 .5-4.6 3.6 3.6 0 0 0-5.4-.5l-7.6 7.5c-2.4-2.5-7.4-2.5-10 0L64.7 53.6v17.6L57 78.7l4.6 4.7-10.5 10.5 3.3 3.3L65 86.7l4.5 4.5 7.5-7.6h17.7L108.3 70c2.6-2.6 2.6-7.6 0-10l7.6-7.6a3.5 3.5 0 0 0 0-5z"/></svg>
